<svg width="386" height="686" viewBox="0 0 386 686" fill="none" xmlns="http://www.w3.org/2000/svg">
<path d="M187.509 440.267L184.272 442.882V504.436C184.272 561.805 184.42 566.165 186.921 568.78C190.599 572.791 195.455 572.442 198.986 568.257C201.781 564.944 201.928 562.503 201.928 504.611C201.928 446.718 201.781 444.277 198.986 440.964C195.455 436.779 191.923 436.605 187.509 440.267Z" fill="#757575"/>
<path d="M134.909 452.5C133.438 454.244 132.408 457.557 132.408 459.824C132.408 463.66 177.137 558.171 182.139 564.797C186.7 571.249 197.147 566.715 197.147 558.345C197.147 555.032 154.331 465.753 147.563 454.941C143.59 448.664 138.588 447.618 134.909 452.5Z" fill="#757575"/>
<path d="M239.153 453.27C234.151 459.896 188.687 554.93 188.687 558.941C188.687 568.357 199.721 571.321 204.577 563.126C213.258 548.304 253.425 463.21 253.425 459.548C253.425 454.491 249.305 449.434 245.038 449.434C243.42 449.434 240.771 451.178 239.153 453.27Z" fill="#757575"/>
<path d="M105.115 590.664C101.142 593.977 100.848 601.824 104.526 605.835C107.028 608.45 115.267 608.799 193.394 608.799C274.906 608.799 279.614 608.625 281.821 605.66C285.352 601.127 284.911 593.803 281.085 590.664C278.143 588.223 267.402 587.874 193.1 587.874C118.798 587.874 108.057 588.223 105.115 590.664Z" fill="#757575"/>
<path d="M113.649 629.724C112.03 631.642 110.706 634.781 110.706 636.699C110.706 638.617 112.03 641.756 113.649 643.674C116.444 646.987 118.504 647.162 193.1 647.162C267.697 647.162 269.756 646.987 272.552 643.674C274.17 641.756 275.495 638.617 275.495 636.699C275.495 634.781 274.17 631.642 272.552 629.724C269.756 626.411 267.697 626.237 193.1 626.237C118.504 626.237 116.444 626.411 113.649 629.724Z" fill="#757575"/>
<path d="M122.035 667.738C118.798 671.923 118.945 679.072 122.182 682.559C124.683 685.175 131.746 685.524 193.394 685.524C257.838 685.524 261.958 685.349 264.165 682.385C267.402 678.2 267.255 671.051 264.018 667.563C261.517 664.948 254.454 664.599 192.806 664.599C128.362 664.599 124.242 664.773 122.035 667.738Z" fill="#757575"/>
<path d="M168.823 2.15224C134.689 6.86033 99.2297 25.1696 70.0975 52.895C18.1596 102.417 -9.50129 188.209 3.15211 261.098C11.5387 309.399 34.6385 385.949 82.3095 523.53C94.0801 557.533 98.4941 568.693 100.848 569.914C104.674 571.832 282.41 571.657 285.941 569.739C287.412 569.042 297.859 540.619 312.278 498.42C352.004 382.287 369.512 324.57 380.106 274.873C384.52 254.297 384.961 249.763 385.108 226.048C385.108 196.928 383.49 184.547 376.28 157.868C347.737 54.1157 261.37 -10.7514 168.823 2.15224ZM220.761 23.7746C290.355 37.2014 344.794 96.1398 363.48 178.096C366.717 192.569 367.158 198.323 367.305 223.433C367.453 249.589 367.011 253.774 363.333 270.514C352.445 319.513 334.348 378.974 297.712 485.865L275.789 550.384H193.1H110.412L105.262 535.562C32.7258 325.441 14.0399 257.61 17.2768 216.632C21.5437 163.448 37.2869 121.25 66.272 85.3286C88.9304 57.2544 115.267 38.7708 147.636 28.134C170.148 20.8102 197.073 19.2409 220.761 23.7746Z" fill="#757575"/>
</svg>
