<svg width="300" height="297" viewBox="0 0 300 297" fill="none" xmlns="http://www.w3.org/2000/svg">
<ellipse cx="150.5" cy="149.175" rx="132.5" ry="131.175" fill="#2C7333"/>
<path d="M90.4804 284.958C60.5691 271.767 35.8422 248.988 20.2521 220.155C3.92684 189.962 -1.3575 155.021 5.30937 121.35C11.9762 87.6803 30.1769 57.3893 56.7759 35.6957C83.375 14.002 116.707 2.26397 151.03 2.5036C185.353 2.74323 218.518 14.9455 244.811 37.0085C271.105 59.0714 288.881 89.6135 295.077 123.373C301.273 157.133 295.501 191.997 278.756 221.959C262.765 250.572 237.723 273.004 207.63 285.776C206.583 286.22 205.321 285.711 204.872 284.555C204.439 283.438 204.98 282.106 206.181 281.593C235.25 269.183 259.438 247.473 274.901 219.805C291.145 190.74 296.744 156.92 290.733 124.171C284.723 91.4215 267.479 61.7938 241.973 40.3915C216.466 18.9891 184.295 7.15213 150.999 6.91967C117.704 6.68722 85.3698 18.0738 59.5671 39.118C33.7644 60.1621 16.1087 89.5462 9.64144 122.208C3.17418 154.87 8.30031 188.765 24.1368 218.054C39.2123 245.936 63.0951 267.981 91.9874 280.796C93.1818 281.325 93.7038 282.665 93.255 283.776C92.7903 284.926 91.5214 285.417 90.4804 284.958Z" stroke="#2C7333" stroke-width="5" stroke-miterlimit="1.30541"/>
<path d="M107.896 291.088C106.725 291.088 105.859 290.783 105.301 290.174C104.746 289.564 104.469 288.617 104.469 287.332C104.469 284.859 105.629 283.623 107.949 283.623C108.266 283.623 108.594 283.654 108.934 283.717C109.273 283.779 109.557 283.867 109.783 283.98C110.014 284.09 110.129 284.213 110.129 284.35C110.129 284.447 110.09 284.576 110.012 284.736C109.934 284.893 109.84 285.031 109.73 285.152C109.625 285.273 109.531 285.334 109.449 285.334C109.43 285.334 109.377 285.314 109.291 285.275C109.104 285.197 108.906 285.133 108.699 285.082C108.496 285.027 108.236 285 107.92 285C107.307 285 106.852 285.195 106.555 285.586C106.262 285.973 106.115 286.559 106.115 287.344C106.115 288.129 106.264 288.721 106.561 289.119C106.857 289.518 107.303 289.717 107.896 289.717C108.205 289.717 108.473 289.686 108.699 289.623C108.93 289.561 109.154 289.48 109.373 289.383C109.385 289.379 109.42 289.365 109.479 289.342C109.537 289.314 109.58 289.301 109.607 289.301C109.709 289.301 109.807 289.361 109.9 289.482C109.994 289.6 110.07 289.734 110.129 289.887C110.188 290.035 110.217 290.143 110.217 290.209C110.217 290.4 110.088 290.562 109.83 290.695C109.576 290.828 109.268 290.928 108.904 290.994C108.545 291.057 108.209 291.088 107.896 291.088ZM113.428 291.088C112.604 291.088 111.975 290.846 111.541 290.361C111.111 289.877 110.896 289.18 110.896 288.27C110.896 287.363 111.111 286.67 111.541 286.189C111.975 285.709 112.604 285.469 113.428 285.469C114.252 285.469 114.877 285.709 115.303 286.189C115.732 286.666 115.947 287.359 115.947 288.27C115.947 289.18 115.732 289.877 115.303 290.361C114.877 290.846 114.252 291.088 113.428 291.088ZM113.428 289.863C113.756 289.863 113.996 289.73 114.148 289.465C114.305 289.199 114.383 288.801 114.383 288.27C114.383 287.742 114.305 287.346 114.148 287.08C113.996 286.814 113.756 286.682 113.428 286.682C112.779 286.682 112.455 287.211 112.455 288.27C112.455 288.797 112.533 289.195 112.689 289.465C112.85 289.73 113.096 289.863 113.428 289.863ZM117.658 291.018C117.244 291.018 117.037 290.908 117.037 290.689V287.385C117.037 286.885 117.004 286.469 116.938 286.137C116.918 286.031 116.908 285.957 116.908 285.914C116.908 285.836 116.98 285.773 117.125 285.727C117.273 285.676 117.439 285.639 117.623 285.615C117.811 285.592 117.961 285.58 118.074 285.58C118.195 285.58 118.279 285.625 118.326 285.715C118.377 285.805 118.422 285.936 118.461 286.107L118.496 286.26C118.66 286.041 118.879 285.855 119.152 285.703C119.43 285.547 119.727 285.469 120.043 285.469C120.566 285.469 120.953 285.605 121.203 285.879C121.453 286.152 121.578 286.576 121.578 287.15V290.689C121.578 290.908 121.367 291.018 120.945 291.018H120.658C120.244 291.018 120.037 290.908 120.037 290.689V287.385C120.037 287.174 119.986 287.014 119.885 286.904C119.787 286.795 119.627 286.74 119.404 286.74C119.217 286.74 119.051 286.803 118.906 286.928C118.762 287.053 118.652 287.191 118.578 287.344V290.689C118.578 290.908 118.367 291.018 117.945 291.018H117.658ZM124.514 291.088C124.018 291.088 123.639 290.949 123.377 290.672C123.119 290.391 122.99 289.965 122.99 289.395V286.77H122.826C122.717 286.77 122.637 286.729 122.586 286.646C122.539 286.564 122.516 286.432 122.516 286.248V286.072C122.516 285.889 122.539 285.756 122.586 285.674C122.637 285.592 122.717 285.551 122.826 285.551H122.99L123.125 284.561C123.156 284.342 123.344 284.232 123.688 284.232H124.016C124.195 284.232 124.326 284.26 124.408 284.314C124.494 284.369 124.537 284.451 124.537 284.561V285.551H125.047C125.156 285.551 125.234 285.592 125.281 285.674C125.332 285.756 125.357 285.889 125.357 286.072V286.248C125.357 286.432 125.332 286.564 125.281 286.646C125.234 286.729 125.156 286.77 125.047 286.77H124.537V289.412C124.537 289.572 124.564 289.688 124.619 289.758C124.678 289.828 124.773 289.863 124.906 289.863C124.945 289.863 124.998 289.857 125.064 289.846C125.131 289.83 125.172 289.822 125.188 289.822C125.25 289.822 125.305 289.875 125.352 289.98C125.402 290.082 125.441 290.195 125.469 290.32C125.5 290.445 125.516 290.529 125.516 290.572C125.516 290.916 125.182 291.088 124.514 291.088ZM127.033 291.018C126.619 291.018 126.412 290.908 126.412 290.689V287.385C126.412 286.885 126.379 286.469 126.312 286.137C126.293 286.031 126.283 285.957 126.283 285.914C126.283 285.836 126.355 285.773 126.5 285.727C126.648 285.676 126.814 285.639 126.998 285.615C127.186 285.592 127.336 285.58 127.449 285.58C127.57 285.58 127.654 285.625 127.701 285.715C127.752 285.805 127.797 285.936 127.836 286.107L127.871 286.26C128.004 286.018 128.156 285.826 128.328 285.686C128.504 285.541 128.729 285.469 129.002 285.469C129.229 285.469 129.385 285.527 129.471 285.645C129.557 285.758 129.6 285.887 129.6 286.031C129.6 286.109 129.586 286.221 129.559 286.365C129.531 286.506 129.492 286.631 129.441 286.74C129.391 286.85 129.334 286.904 129.271 286.904C129.229 286.904 129.164 286.893 129.078 286.869C128.961 286.838 128.861 286.822 128.779 286.822C128.588 286.822 128.42 286.877 128.275 286.986C128.135 287.092 128.027 287.211 127.953 287.344V290.689C127.953 290.908 127.742 291.018 127.32 291.018H127.033ZM132.541 291.088C131.717 291.088 131.088 290.846 130.654 290.361C130.225 289.877 130.01 289.18 130.01 288.27C130.01 287.363 130.225 286.67 130.654 286.189C131.088 285.709 131.717 285.469 132.541 285.469C133.365 285.469 133.99 285.709 134.416 286.189C134.846 286.666 135.061 287.359 135.061 288.27C135.061 289.18 134.846 289.877 134.416 290.361C133.99 290.846 133.365 291.088 132.541 291.088ZM132.541 289.863C132.869 289.863 133.109 289.73 133.262 289.465C133.418 289.199 133.496 288.801 133.496 288.27C133.496 287.742 133.418 287.346 133.262 287.08C133.109 286.814 132.869 286.682 132.541 286.682C131.893 286.682 131.568 287.211 131.568 288.27C131.568 288.797 131.646 289.195 131.803 289.465C131.963 289.73 132.209 289.863 132.541 289.863ZM137.68 291.088C137.184 291.088 136.805 290.949 136.543 290.672C136.285 290.391 136.156 289.965 136.156 289.395V283.482C136.156 283.256 136.365 283.143 136.783 283.143H137.076C137.291 283.143 137.447 283.172 137.545 283.23C137.646 283.285 137.697 283.369 137.697 283.482V289.412C137.697 289.572 137.727 289.688 137.785 289.758C137.844 289.828 137.941 289.863 138.078 289.863C138.113 289.863 138.166 289.855 138.236 289.84C138.256 289.836 138.275 289.832 138.295 289.828C138.314 289.824 138.336 289.822 138.359 289.822C138.418 289.822 138.471 289.875 138.518 289.98C138.568 290.082 138.607 290.197 138.635 290.326C138.662 290.451 138.676 290.533 138.676 290.572C138.676 290.916 138.344 291.088 137.68 291.088ZM141.764 291.088C140.85 291.088 140.168 290.844 139.719 290.355C139.27 289.863 139.045 289.182 139.045 288.311C139.045 287.33 139.27 286.611 139.719 286.154C140.168 285.697 140.787 285.469 141.576 285.469C142.1 285.469 142.527 285.588 142.859 285.826C143.195 286.064 143.439 286.385 143.592 286.787C143.748 287.189 143.826 287.645 143.826 288.152C143.826 288.211 143.791 288.289 143.721 288.387C143.654 288.484 143.578 288.572 143.492 288.65C143.406 288.729 143.34 288.768 143.293 288.768H140.639C140.674 289.166 140.791 289.449 140.99 289.617C141.193 289.781 141.475 289.863 141.834 289.863C142.029 289.863 142.205 289.842 142.361 289.799C142.521 289.752 142.691 289.691 142.871 289.617C142.98 289.566 143.055 289.541 143.094 289.541C143.164 289.541 143.24 289.592 143.322 289.693C143.408 289.791 143.48 289.904 143.539 290.033C143.602 290.162 143.633 290.262 143.633 290.332C143.633 290.492 143.523 290.629 143.305 290.742C143.09 290.855 142.834 290.941 142.537 291C142.244 291.059 141.986 291.088 141.764 291.088ZM142.326 287.742C142.326 287.422 142.264 287.166 142.139 286.975C142.014 286.779 141.826 286.682 141.576 286.682C141.061 286.682 140.748 287.035 140.639 287.742H142.326ZM148.086 291.018C147.668 291.018 147.459 290.908 147.459 290.689V284.121C147.459 283.977 147.492 283.873 147.559 283.811C147.625 283.744 147.73 283.711 147.875 283.711H151.355C151.465 283.711 151.543 283.752 151.59 283.834C151.641 283.916 151.666 284.049 151.666 284.232V284.549C151.666 284.732 151.641 284.865 151.59 284.947C151.543 285.029 151.465 285.07 151.355 285.07H149.064V286.594H151.279C151.389 286.594 151.469 286.635 151.52 286.717C151.57 286.799 151.596 286.93 151.596 287.109V287.432C151.596 287.615 151.57 287.75 151.52 287.836C151.469 287.918 151.389 287.959 151.279 287.959H149.064V290.689C149.064 290.908 148.855 291.018 148.438 291.018H148.086ZM153.219 284.654C153 284.654 152.84 284.627 152.738 284.572C152.641 284.518 152.592 284.434 152.592 284.32V283.482C152.592 283.369 152.643 283.285 152.744 283.23C152.846 283.172 153.004 283.143 153.219 283.143H153.506C153.721 283.143 153.879 283.172 153.98 283.23C154.082 283.285 154.133 283.369 154.133 283.482V284.32C154.133 284.434 154.082 284.518 153.98 284.572C153.883 284.627 153.725 284.654 153.506 284.654H153.219ZM153.219 291.018C152.801 291.018 152.592 290.908 152.592 290.689V285.861C152.592 285.752 152.643 285.67 152.744 285.615C152.846 285.561 153.004 285.533 153.219 285.533H153.506C153.721 285.533 153.879 285.561 153.98 285.615C154.082 285.67 154.133 285.752 154.133 285.861V290.689C154.133 290.908 153.924 291.018 153.506 291.018H153.219ZM156.014 291.018C155.6 291.018 155.393 290.908 155.393 290.689V287.385C155.393 286.885 155.359 286.469 155.293 286.137C155.273 286.031 155.264 285.957 155.264 285.914C155.264 285.836 155.336 285.773 155.48 285.727C155.629 285.676 155.795 285.639 155.979 285.615C156.166 285.592 156.316 285.58 156.43 285.58C156.551 285.58 156.635 285.625 156.682 285.715C156.732 285.805 156.777 285.936 156.816 286.107L156.852 286.26C157.016 286.041 157.234 285.855 157.508 285.703C157.785 285.547 158.082 285.469 158.398 285.469C158.922 285.469 159.309 285.605 159.559 285.879C159.809 286.152 159.934 286.576 159.934 287.15V290.689C159.934 290.908 159.723 291.018 159.301 291.018H159.014C158.6 291.018 158.393 290.908 158.393 290.689V287.385C158.393 287.174 158.342 287.014 158.24 286.904C158.143 286.795 157.982 286.74 157.76 286.74C157.572 286.74 157.406 286.803 157.262 286.928C157.117 287.053 157.008 287.191 156.934 287.344V290.689C156.934 290.908 156.723 291.018 156.301 291.018H156.014ZM162.523 291.088C161.992 291.088 161.602 290.949 161.352 290.672C161.105 290.391 160.982 290.02 160.982 289.559C160.982 289.211 161.055 288.898 161.199 288.621C161.344 288.34 161.637 288.104 162.078 287.912C162.52 287.721 163.15 287.625 163.971 287.625V287.279C163.971 287.076 163.906 286.926 163.777 286.828C163.648 286.73 163.443 286.682 163.162 286.682C162.928 286.682 162.727 286.707 162.559 286.758C162.391 286.805 162.209 286.869 162.014 286.951C161.912 286.998 161.85 287.021 161.826 287.021C161.756 287.021 161.678 286.969 161.592 286.863C161.51 286.758 161.438 286.637 161.375 286.5C161.312 286.363 161.281 286.26 161.281 286.189C161.281 286.068 161.367 285.953 161.539 285.844C161.715 285.73 161.955 285.641 162.26 285.574C162.564 285.504 162.902 285.469 163.273 285.469C164.055 285.469 164.623 285.625 164.979 285.938C165.334 286.246 165.512 286.67 165.512 287.209V289.16C165.512 289.484 165.52 289.736 165.535 289.916C165.555 290.096 165.58 290.273 165.611 290.449C165.631 290.555 165.641 290.629 165.641 290.672C165.641 290.75 165.566 290.814 165.418 290.865C165.273 290.916 165.107 290.953 164.92 290.977C164.732 291 164.582 291.012 164.469 291.012C164.348 291.012 164.26 290.961 164.205 290.859C164.154 290.754 164.113 290.611 164.082 290.432C164.078 290.408 164.074 290.385 164.07 290.361C164.066 290.338 164.061 290.314 164.053 290.291C164.014 290.365 163.93 290.465 163.801 290.59C163.676 290.715 163.504 290.83 163.285 290.936C163.066 291.037 162.812 291.088 162.523 291.088ZM163.033 289.863C163.229 289.863 163.412 289.803 163.584 289.682C163.756 289.557 163.885 289.398 163.971 289.207V288.633C162.998 288.633 162.512 288.889 162.512 289.4C162.512 289.537 162.557 289.648 162.646 289.734C162.74 289.82 162.869 289.863 163.033 289.863ZM167.498 291.018C167.084 291.018 166.877 290.908 166.877 290.689V287.385C166.877 286.885 166.844 286.469 166.777 286.137C166.758 286.031 166.748 285.957 166.748 285.914C166.748 285.836 166.82 285.773 166.965 285.727C167.113 285.676 167.279 285.639 167.463 285.615C167.65 285.592 167.801 285.58 167.914 285.58C168.035 285.58 168.119 285.625 168.166 285.715C168.217 285.805 168.262 285.936 168.301 286.107L168.336 286.26C168.5 286.041 168.719 285.855 168.992 285.703C169.27 285.547 169.566 285.469 169.883 285.469C170.406 285.469 170.793 285.605 171.043 285.879C171.293 286.152 171.418 286.576 171.418 287.15V290.689C171.418 290.908 171.207 291.018 170.785 291.018H170.498C170.084 291.018 169.877 290.908 169.877 290.689V287.385C169.877 287.174 169.826 287.014 169.725 286.904C169.627 286.795 169.467 286.74 169.244 286.74C169.057 286.74 168.891 286.803 168.746 286.928C168.602 287.053 168.492 287.191 168.418 287.344V290.689C168.418 290.908 168.207 291.018 167.785 291.018H167.498ZM175.086 291.088C174.199 291.088 173.541 290.859 173.111 290.402C172.682 289.941 172.467 289.244 172.467 288.311C172.467 287.369 172.684 286.66 173.117 286.184C173.551 285.707 174.227 285.469 175.145 285.469C175.406 285.469 175.67 285.498 175.936 285.557C176.205 285.611 176.428 285.693 176.604 285.803C176.783 285.908 176.873 286.037 176.873 286.189C176.873 286.252 176.838 286.35 176.768 286.482C176.701 286.615 176.623 286.734 176.533 286.84C176.447 286.941 176.375 286.992 176.316 286.992C176.289 286.992 176.229 286.965 176.135 286.91C175.986 286.84 175.846 286.785 175.713 286.746C175.58 286.703 175.418 286.682 175.227 286.682C174.816 286.682 174.518 286.812 174.33 287.074C174.143 287.332 174.049 287.73 174.049 288.27C174.049 288.812 174.137 289.215 174.312 289.477C174.492 289.734 174.777 289.863 175.168 289.863C175.383 289.863 175.57 289.842 175.73 289.799C175.891 289.752 176.043 289.693 176.188 289.623C176.215 289.611 176.248 289.598 176.287 289.582C176.326 289.566 176.355 289.559 176.375 289.559C176.445 289.559 176.521 289.609 176.604 289.711C176.689 289.809 176.762 289.922 176.82 290.051C176.883 290.18 176.914 290.279 176.914 290.35C176.914 290.529 176.797 290.674 176.562 290.783C176.328 290.893 176.066 290.971 175.777 291.018C175.488 291.064 175.258 291.088 175.086 291.088ZM180.236 291.088C179.322 291.088 178.641 290.844 178.191 290.355C177.742 289.863 177.518 289.182 177.518 288.311C177.518 287.33 177.742 286.611 178.191 286.154C178.641 285.697 179.26 285.469 180.049 285.469C180.572 285.469 181 285.588 181.332 285.826C181.668 286.064 181.912 286.385 182.064 286.787C182.221 287.189 182.299 287.645 182.299 288.152C182.299 288.211 182.264 288.289 182.193 288.387C182.127 288.484 182.051 288.572 181.965 288.65C181.879 288.729 181.812 288.768 181.766 288.768H179.111C179.146 289.166 179.264 289.449 179.463 289.617C179.666 289.781 179.947 289.863 180.307 289.863C180.502 289.863 180.678 289.842 180.834 289.799C180.994 289.752 181.164 289.691 181.344 289.617C181.453 289.566 181.527 289.541 181.566 289.541C181.637 289.541 181.713 289.592 181.795 289.693C181.881 289.791 181.953 289.904 182.012 290.033C182.074 290.162 182.105 290.262 182.105 290.332C182.105 290.492 181.996 290.629 181.777 290.742C181.562 290.855 181.307 290.941 181.01 291C180.717 291.059 180.459 291.088 180.236 291.088ZM180.799 287.742C180.799 287.422 180.736 287.166 180.611 286.975C180.486 286.779 180.299 286.682 180.049 286.682C179.533 286.682 179.221 287.035 179.111 287.742H180.799ZM183.945 284.654C183.727 284.654 183.566 284.627 183.465 284.572C183.367 284.518 183.318 284.434 183.318 284.32V283.482C183.318 283.369 183.369 283.285 183.471 283.23C183.572 283.172 183.73 283.143 183.945 283.143H184.232C184.447 283.143 184.605 283.172 184.707 283.23C184.809 283.285 184.859 283.369 184.859 283.482V284.32C184.859 284.434 184.809 284.518 184.707 284.572C184.609 284.627 184.451 284.654 184.232 284.654H183.945ZM183.945 291.018C183.527 291.018 183.318 290.908 183.318 290.689V285.861C183.318 285.752 183.369 285.67 183.471 285.615C183.572 285.561 183.73 285.533 183.945 285.533H184.232C184.447 285.533 184.605 285.561 184.707 285.615C184.809 285.67 184.859 285.752 184.859 285.861V290.689C184.859 290.908 184.65 291.018 184.232 291.018H183.945ZM186.74 291.018C186.326 291.018 186.119 290.908 186.119 290.689V287.385C186.119 286.885 186.086 286.469 186.02 286.137C186 286.031 185.99 285.957 185.99 285.914C185.99 285.836 186.062 285.773 186.207 285.727C186.355 285.676 186.521 285.639 186.705 285.615C186.893 285.592 187.043 285.58 187.156 285.58C187.277 285.58 187.361 285.625 187.408 285.715C187.459 285.805 187.504 285.936 187.543 286.107L187.578 286.26C187.711 286.018 187.863 285.826 188.035 285.686C188.211 285.541 188.436 285.469 188.709 285.469C188.936 285.469 189.092 285.527 189.178 285.645C189.264 285.758 189.307 285.887 189.307 286.031C189.307 286.109 189.293 286.221 189.266 286.365C189.238 286.506 189.199 286.631 189.148 286.74C189.098 286.85 189.041 286.904 188.979 286.904C188.936 286.904 188.871 286.893 188.785 286.869C188.668 286.838 188.568 286.822 188.486 286.822C188.295 286.822 188.127 286.877 187.982 286.986C187.842 287.092 187.734 287.211 187.66 287.344V290.689C187.66 290.908 187.449 291.018 187.027 291.018H186.74ZM192.248 291.088C191.424 291.088 190.795 290.846 190.361 290.361C189.932 289.877 189.717 289.18 189.717 288.27C189.717 287.363 189.932 286.67 190.361 286.189C190.795 285.709 191.424 285.469 192.248 285.469C193.072 285.469 193.697 285.709 194.123 286.189C194.553 286.666 194.768 287.359 194.768 288.27C194.768 289.18 194.553 289.877 194.123 290.361C193.697 290.846 193.072 291.088 192.248 291.088ZM192.248 289.863C192.576 289.863 192.816 289.73 192.969 289.465C193.125 289.199 193.203 288.801 193.203 288.27C193.203 287.742 193.125 287.346 192.969 287.08C192.816 286.814 192.576 286.682 192.248 286.682C191.6 286.682 191.275 287.211 191.275 288.27C191.275 288.797 191.354 289.195 191.51 289.465C191.67 289.73 191.916 289.863 192.248 289.863Z" fill="#2C7333"/>
<path d="M110.543 224V107.594H112.105L118.355 117.75V224H110.543ZM110.543 91.9688V87.2812H118.16L197.457 213.648V224H193.355L110.543 91.9688ZM189.645 187.086V87.2812H197.457V197.438H195.895L189.645 187.086Z" fill="#232623"/>
<path d="M110.543 224H109.543V225H110.543V224ZM110.543 107.594V106.594H109.543V107.594H110.543ZM112.105 107.594L112.957 107.07L112.664 106.594H112.105V107.594ZM118.355 117.75H119.355V117.467L119.207 117.226L118.355 117.75ZM118.355 224V225H119.355V224H118.355ZM110.543 91.9688H109.543V92.2564L109.696 92.5001L110.543 91.9688ZM110.543 87.2812V86.2812H109.543V87.2812H110.543ZM118.16 87.2812L119.007 86.7497L118.713 86.2812H118.16V87.2812ZM197.457 213.648H198.457V213.361L198.304 213.117L197.457 213.648ZM197.457 224V225H198.457V224H197.457ZM193.355 224L192.508 224.531L192.802 225H193.355V224ZM189.645 187.086H188.645V187.364L188.788 187.603L189.645 187.086ZM189.645 87.2812V86.2812H188.645V87.2812H189.645ZM197.457 87.2812H198.457V86.2812H197.457V87.2812ZM197.457 197.438V198.438H198.457V197.438H197.457ZM195.895 197.438L195.038 197.954L195.33 198.438H195.895V197.438ZM111.543 224V107.594H109.543V224H111.543ZM110.543 108.594H112.105V106.594H110.543V108.594ZM111.254 108.118L117.504 118.274L119.207 117.226L112.957 107.07L111.254 108.118ZM117.355 117.75V224H119.355V117.75H117.355ZM118.355 223H110.543V225H118.355V223ZM111.543 91.9688V87.2812H109.543V91.9688H111.543ZM110.543 88.2812H118.16V86.2812H110.543V88.2812ZM117.313 87.8128L196.61 214.18L198.304 213.117L119.007 86.7497L117.313 87.8128ZM196.457 213.648V224H198.457V213.648H196.457ZM197.457 223H193.355V225H197.457V223ZM194.203 223.469L111.39 91.4374L109.696 92.5001L192.508 224.531L194.203 223.469ZM190.645 187.086V87.2812H188.645V187.086H190.645ZM189.645 88.2812H197.457V86.2812H189.645V88.2812ZM196.457 87.2812V197.438H198.457V87.2812H196.457ZM197.457 196.438H195.895V198.438H197.457V196.438ZM196.751 196.921L190.501 186.569L188.788 187.603L195.038 197.954L196.751 196.921Z" fill="#232623"/>
<path d="M101 224V67" stroke="#232623" stroke-width="6" stroke-linecap="round"/>
<path d="M102 63.5C100.067 63.5 98.5 65.067 98.5 67C98.5 68.933 100.067 70.5 102 70.5V63.5ZM172 70.5H175.5V63.5H172V70.5ZM102 70.5H172V63.5H102V70.5Z" fill="#232623"/>
<path d="M102 153.5C100.067 153.5 98.5 155.067 98.5 157C98.5 158.933 100.067 160.5 102 160.5V153.5ZM152 160.5H155.5V153.5H152V160.5ZM102 160.5H152V153.5H102V160.5Z" fill="#232623"/>
<circle cx="192" cy="67" r="5.5" fill="#232623" stroke="#232623"/>
</svg>
