<svg width="119" height="181" viewBox="0 0 119 181" fill="none" xmlns="http://www.w3.org/2000/svg">
<path d="M23.543 166V49.5938H25.1055L31.3555 59.75V166H23.543ZM23.543 33.9688V29.2812H31.1602L110.457 155.648V166H106.355L23.543 33.9688ZM102.645 129.086V29.2812H110.457V139.438H108.895L102.645 129.086Z" fill="#33FF00"/>
<path d="M23.543 166H22.543V167H23.543V166ZM23.543 49.5938V48.5938H22.543V49.5938H23.543ZM25.1055 49.5938L25.9571 49.0697L25.6643 48.5938H25.1055V49.5938ZM31.3555 59.75H32.3555V59.467L32.2071 59.2259L31.3555 59.75ZM31.3555 166V167H32.3555V166H31.3555ZM23.543 33.9688H22.543V34.2564L22.6958 34.5001L23.543 33.9688ZM23.543 29.2812V28.2812H22.543V29.2812H23.543ZM31.1602 29.2812L32.0072 28.7497L31.7132 28.2812H31.1602V29.2812ZM110.457 155.648H111.457V155.361L111.304 155.117L110.457 155.648ZM110.457 166V167H111.457V166H110.457ZM106.355 166L105.508 166.531L105.802 167H106.355V166ZM102.645 129.086H101.645V129.364L101.788 129.603L102.645 129.086ZM102.645 29.2812V28.2812H101.645V29.2812H102.645ZM110.457 29.2812H111.457V28.2812H110.457V29.2812ZM110.457 139.438V140.438H111.457V139.438H110.457ZM108.895 139.438L108.038 139.954L108.33 140.438H108.895V139.438ZM24.543 166V49.5938H22.543V166H24.543ZM23.543 50.5938H25.1055V48.5938H23.543V50.5938ZM24.2538 50.1178L30.5038 60.2741L32.2071 59.2259L25.9571 49.0697L24.2538 50.1178ZM30.3555 59.75V166H32.3555V59.75H30.3555ZM31.3555 165H23.543V167H31.3555V165ZM24.543 33.9688V29.2812H22.543V33.9688H24.543ZM23.543 30.2812H31.1602V28.2812H23.543V30.2812ZM30.3131 29.8128L109.61 156.18L111.304 155.117L32.0072 28.7497L30.3131 29.8128ZM109.457 155.648V166H111.457V155.648H109.457ZM110.457 165H106.355V167H110.457V165ZM107.203 165.469L24.3901 33.4374L22.6958 34.5001L105.508 166.531L107.203 165.469ZM103.645 129.086V29.2812H101.645V129.086H103.645ZM102.645 30.2812H110.457V28.2812H102.645V30.2812ZM109.457 29.2812V139.438H111.457V29.2812H109.457ZM110.457 138.438H108.895V140.438H110.457V138.438ZM109.751 138.921L103.501 128.569L101.788 129.603L108.038 139.954L109.751 138.921Z" fill="#33FF00"/>
<path d="M5 162L5 4.99999" stroke="#33FF00" stroke-width="9" stroke-linecap="round"/>
<path d="M6 0.5C3.51472 0.5 1.5 2.51472 1.5 5C1.5 7.48528 3.51472 9.5 6 9.5V0.5ZM76 9.5H80.5V0.5H76V9.5ZM6 9.5L76 9.5V0.5L6 0.5V9.5Z" fill="#33FF00"/>
<path d="M10 90.5C7.51472 90.5 5.5 92.5147 5.5 95C5.5 97.4853 7.51472 99.5 10 99.5V90.5ZM65 99.5H69.5V90.5H65V99.5ZM10 99.5H65V90.5H10V99.5Z" fill="#33FF00"/>
<circle cx="102" cy="6" r="5.5" fill="#33FF00" stroke="#33FF00"/>
</svg>
