<svg width="310" height="302" viewBox="0 0 310 302" fill="none" xmlns="http://www.w3.org/2000/svg">
<ellipse cx="155" cy="154.75" rx="125" ry="123.75" fill="#2C7333"/>
<path d="M100.573 289.712C99.5989 292.123 96.8508 293.295 94.4716 292.245C64.0533 278.831 38.9073 255.666 23.053 226.344C6.45102 195.639 1.07711 160.106 7.85698 125.865C14.6368 91.624 33.146 60.8197 60.1959 38.7583C87.2458 16.697 121.143 4.75997 156.047 5.00366C190.952 5.24735 224.679 17.6565 251.418 40.0934C278.158 62.5302 296.235 93.59 302.536 127.922C308.837 162.254 302.968 197.709 285.939 228.179C269.676 257.277 244.209 280.089 213.607 293.077C211.213 294.093 208.482 292.883 207.541 290.459C206.601 288.035 207.808 285.315 210.2 284.294C238.76 272.101 262.526 250.77 277.719 223.585C293.679 195.028 299.18 161.799 293.274 129.622C287.369 97.445 270.426 68.335 245.366 47.3066C220.305 26.2781 188.695 14.648 155.982 14.4196C123.268 14.1912 91.499 25.3789 66.1472 46.0553C40.7953 66.7318 23.4481 95.6024 17.0938 127.694C10.7396 159.785 15.7761 193.088 31.3359 221.865C46.148 249.26 69.6135 270.92 98.001 283.51C100.378 284.565 101.547 287.301 100.573 289.712Z" stroke="#2C7333" stroke-width="10" stroke-miterlimit="1.30541"/>
<path d="M112.896 296.088C111.725 296.088 110.859 295.783 110.301 295.174C109.746 294.564 109.469 293.617 109.469 292.332C109.469 289.859 110.629 288.623 112.949 288.623C113.266 288.623 113.594 288.654 113.934 288.717C114.273 288.779 114.557 288.867 114.783 288.98C115.014 289.09 115.129 289.213 115.129 289.35C115.129 289.447 115.09 289.576 115.012 289.736C114.934 289.893 114.84 290.031 114.73 290.152C114.625 290.273 114.531 290.334 114.449 290.334C114.43 290.334 114.377 290.314 114.291 290.275C114.104 290.197 113.906 290.133 113.699 290.082C113.496 290.027 113.236 290 112.92 290C112.307 290 111.852 290.195 111.555 290.586C111.262 290.973 111.115 291.559 111.115 292.344C111.115 293.129 111.264 293.721 111.561 294.119C111.857 294.518 112.303 294.717 112.896 294.717C113.205 294.717 113.473 294.686 113.699 294.623C113.93 294.561 114.154 294.48 114.373 294.383C114.385 294.379 114.42 294.365 114.479 294.342C114.537 294.314 114.58 294.301 114.607 294.301C114.709 294.301 114.807 294.361 114.9 294.482C114.994 294.6 115.07 294.734 115.129 294.887C115.188 295.035 115.217 295.143 115.217 295.209C115.217 295.4 115.088 295.562 114.83 295.695C114.576 295.828 114.268 295.928 113.904 295.994C113.545 296.057 113.209 296.088 112.896 296.088ZM118.428 296.088C117.604 296.088 116.975 295.846 116.541 295.361C116.111 294.877 115.896 294.18 115.896 293.27C115.896 292.363 116.111 291.67 116.541 291.189C116.975 290.709 117.604 290.469 118.428 290.469C119.252 290.469 119.877 290.709 120.303 291.189C120.732 291.666 120.947 292.359 120.947 293.27C120.947 294.18 120.732 294.877 120.303 295.361C119.877 295.846 119.252 296.088 118.428 296.088ZM118.428 294.863C118.756 294.863 118.996 294.73 119.148 294.465C119.305 294.199 119.383 293.801 119.383 293.27C119.383 292.742 119.305 292.346 119.148 292.08C118.996 291.814 118.756 291.682 118.428 291.682C117.779 291.682 117.455 292.211 117.455 293.27C117.455 293.797 117.533 294.195 117.689 294.465C117.85 294.73 118.096 294.863 118.428 294.863ZM122.658 296.018C122.244 296.018 122.037 295.908 122.037 295.689V292.385C122.037 291.885 122.004 291.469 121.938 291.137C121.918 291.031 121.908 290.957 121.908 290.914C121.908 290.836 121.98 290.773 122.125 290.727C122.273 290.676 122.439 290.639 122.623 290.615C122.811 290.592 122.961 290.58 123.074 290.58C123.195 290.58 123.279 290.625 123.326 290.715C123.377 290.805 123.422 290.936 123.461 291.107L123.496 291.26C123.66 291.041 123.879 290.855 124.152 290.703C124.43 290.547 124.727 290.469 125.043 290.469C125.566 290.469 125.953 290.605 126.203 290.879C126.453 291.152 126.578 291.576 126.578 292.15V295.689C126.578 295.908 126.367 296.018 125.945 296.018H125.658C125.244 296.018 125.037 295.908 125.037 295.689V292.385C125.037 292.174 124.986 292.014 124.885 291.904C124.787 291.795 124.627 291.74 124.404 291.74C124.217 291.74 124.051 291.803 123.906 291.928C123.762 292.053 123.652 292.191 123.578 292.344V295.689C123.578 295.908 123.367 296.018 122.945 296.018H122.658ZM129.514 296.088C129.018 296.088 128.639 295.949 128.377 295.672C128.119 295.391 127.99 294.965 127.99 294.395V291.77H127.826C127.717 291.77 127.637 291.729 127.586 291.646C127.539 291.564 127.516 291.432 127.516 291.248V291.072C127.516 290.889 127.539 290.756 127.586 290.674C127.637 290.592 127.717 290.551 127.826 290.551H127.99L128.125 289.561C128.156 289.342 128.344 289.232 128.688 289.232H129.016C129.195 289.232 129.326 289.26 129.408 289.314C129.494 289.369 129.537 289.451 129.537 289.561V290.551H130.047C130.156 290.551 130.234 290.592 130.281 290.674C130.332 290.756 130.357 290.889 130.357 291.072V291.248C130.357 291.432 130.332 291.564 130.281 291.646C130.234 291.729 130.156 291.77 130.047 291.77H129.537V294.412C129.537 294.572 129.564 294.688 129.619 294.758C129.678 294.828 129.773 294.863 129.906 294.863C129.945 294.863 129.998 294.857 130.064 294.846C130.131 294.83 130.172 294.822 130.188 294.822C130.25 294.822 130.305 294.875 130.352 294.98C130.402 295.082 130.441 295.195 130.469 295.32C130.5 295.445 130.516 295.529 130.516 295.572C130.516 295.916 130.182 296.088 129.514 296.088ZM132.033 296.018C131.619 296.018 131.412 295.908 131.412 295.689V292.385C131.412 291.885 131.379 291.469 131.312 291.137C131.293 291.031 131.283 290.957 131.283 290.914C131.283 290.836 131.355 290.773 131.5 290.727C131.648 290.676 131.814 290.639 131.998 290.615C132.186 290.592 132.336 290.58 132.449 290.58C132.57 290.58 132.654 290.625 132.701 290.715C132.752 290.805 132.797 290.936 132.836 291.107L132.871 291.26C133.004 291.018 133.156 290.826 133.328 290.686C133.504 290.541 133.729 290.469 134.002 290.469C134.229 290.469 134.385 290.527 134.471 290.645C134.557 290.758 134.6 290.887 134.6 291.031C134.6 291.109 134.586 291.221 134.559 291.365C134.531 291.506 134.492 291.631 134.441 291.74C134.391 291.85 134.334 291.904 134.271 291.904C134.229 291.904 134.164 291.893 134.078 291.869C133.961 291.838 133.861 291.822 133.779 291.822C133.588 291.822 133.42 291.877 133.275 291.986C133.135 292.092 133.027 292.211 132.953 292.344V295.689C132.953 295.908 132.742 296.018 132.32 296.018H132.033ZM137.541 296.088C136.717 296.088 136.088 295.846 135.654 295.361C135.225 294.877 135.01 294.18 135.01 293.27C135.01 292.363 135.225 291.67 135.654 291.189C136.088 290.709 136.717 290.469 137.541 290.469C138.365 290.469 138.99 290.709 139.416 291.189C139.846 291.666 140.061 292.359 140.061 293.27C140.061 294.18 139.846 294.877 139.416 295.361C138.99 295.846 138.365 296.088 137.541 296.088ZM137.541 294.863C137.869 294.863 138.109 294.73 138.262 294.465C138.418 294.199 138.496 293.801 138.496 293.27C138.496 292.742 138.418 292.346 138.262 292.08C138.109 291.814 137.869 291.682 137.541 291.682C136.893 291.682 136.568 292.211 136.568 293.27C136.568 293.797 136.646 294.195 136.803 294.465C136.963 294.73 137.209 294.863 137.541 294.863ZM142.68 296.088C142.184 296.088 141.805 295.949 141.543 295.672C141.285 295.391 141.156 294.965 141.156 294.395V288.482C141.156 288.256 141.365 288.143 141.783 288.143H142.076C142.291 288.143 142.447 288.172 142.545 288.23C142.646 288.285 142.697 288.369 142.697 288.482V294.412C142.697 294.572 142.727 294.688 142.785 294.758C142.844 294.828 142.941 294.863 143.078 294.863C143.113 294.863 143.166 294.855 143.236 294.84C143.256 294.836 143.275 294.832 143.295 294.828C143.314 294.824 143.336 294.822 143.359 294.822C143.418 294.822 143.471 294.875 143.518 294.98C143.568 295.082 143.607 295.197 143.635 295.326C143.662 295.451 143.676 295.533 143.676 295.572C143.676 295.916 143.344 296.088 142.68 296.088ZM146.764 296.088C145.85 296.088 145.168 295.844 144.719 295.355C144.27 294.863 144.045 294.182 144.045 293.311C144.045 292.33 144.27 291.611 144.719 291.154C145.168 290.697 145.787 290.469 146.576 290.469C147.1 290.469 147.527 290.588 147.859 290.826C148.195 291.064 148.439 291.385 148.592 291.787C148.748 292.189 148.826 292.645 148.826 293.152C148.826 293.211 148.791 293.289 148.721 293.387C148.654 293.484 148.578 293.572 148.492 293.65C148.406 293.729 148.34 293.768 148.293 293.768H145.639C145.674 294.166 145.791 294.449 145.99 294.617C146.193 294.781 146.475 294.863 146.834 294.863C147.029 294.863 147.205 294.842 147.361 294.799C147.521 294.752 147.691 294.691 147.871 294.617C147.98 294.566 148.055 294.541 148.094 294.541C148.164 294.541 148.24 294.592 148.322 294.693C148.408 294.791 148.48 294.904 148.539 295.033C148.602 295.162 148.633 295.262 148.633 295.332C148.633 295.492 148.523 295.629 148.305 295.742C148.09 295.855 147.834 295.941 147.537 296C147.244 296.059 146.986 296.088 146.764 296.088ZM147.326 292.742C147.326 292.422 147.264 292.166 147.139 291.975C147.014 291.779 146.826 291.682 146.576 291.682C146.061 291.682 145.748 292.035 145.639 292.742H147.326ZM153.086 296.018C152.668 296.018 152.459 295.908 152.459 295.689V289.121C152.459 288.977 152.492 288.873 152.559 288.811C152.625 288.744 152.73 288.711 152.875 288.711H156.355C156.465 288.711 156.543 288.752 156.59 288.834C156.641 288.916 156.666 289.049 156.666 289.232V289.549C156.666 289.732 156.641 289.865 156.59 289.947C156.543 290.029 156.465 290.07 156.355 290.07H154.064V291.594H156.279C156.389 291.594 156.469 291.635 156.52 291.717C156.57 291.799 156.596 291.93 156.596 292.109V292.432C156.596 292.615 156.57 292.75 156.52 292.836C156.469 292.918 156.389 292.959 156.279 292.959H154.064V295.689C154.064 295.908 153.855 296.018 153.438 296.018H153.086ZM158.219 289.654C158 289.654 157.84 289.627 157.738 289.572C157.641 289.518 157.592 289.434 157.592 289.32V288.482C157.592 288.369 157.643 288.285 157.744 288.23C157.846 288.172 158.004 288.143 158.219 288.143H158.506C158.721 288.143 158.879 288.172 158.98 288.23C159.082 288.285 159.133 288.369 159.133 288.482V289.32C159.133 289.434 159.082 289.518 158.98 289.572C158.883 289.627 158.725 289.654 158.506 289.654H158.219ZM158.219 296.018C157.801 296.018 157.592 295.908 157.592 295.689V290.861C157.592 290.752 157.643 290.67 157.744 290.615C157.846 290.561 158.004 290.533 158.219 290.533H158.506C158.721 290.533 158.879 290.561 158.98 290.615C159.082 290.67 159.133 290.752 159.133 290.861V295.689C159.133 295.908 158.924 296.018 158.506 296.018H158.219ZM161.014 296.018C160.6 296.018 160.393 295.908 160.393 295.689V292.385C160.393 291.885 160.359 291.469 160.293 291.137C160.273 291.031 160.264 290.957 160.264 290.914C160.264 290.836 160.336 290.773 160.48 290.727C160.629 290.676 160.795 290.639 160.979 290.615C161.166 290.592 161.316 290.58 161.43 290.58C161.551 290.58 161.635 290.625 161.682 290.715C161.732 290.805 161.777 290.936 161.816 291.107L161.852 291.26C162.016 291.041 162.234 290.855 162.508 290.703C162.785 290.547 163.082 290.469 163.398 290.469C163.922 290.469 164.309 290.605 164.559 290.879C164.809 291.152 164.934 291.576 164.934 292.15V295.689C164.934 295.908 164.723 296.018 164.301 296.018H164.014C163.6 296.018 163.393 295.908 163.393 295.689V292.385C163.393 292.174 163.342 292.014 163.24 291.904C163.143 291.795 162.982 291.74 162.76 291.74C162.572 291.74 162.406 291.803 162.262 291.928C162.117 292.053 162.008 292.191 161.934 292.344V295.689C161.934 295.908 161.723 296.018 161.301 296.018H161.014ZM167.523 296.088C166.992 296.088 166.602 295.949 166.352 295.672C166.105 295.391 165.982 295.02 165.982 294.559C165.982 294.211 166.055 293.898 166.199 293.621C166.344 293.34 166.637 293.104 167.078 292.912C167.52 292.721 168.15 292.625 168.971 292.625V292.279C168.971 292.076 168.906 291.926 168.777 291.828C168.648 291.73 168.443 291.682 168.162 291.682C167.928 291.682 167.727 291.707 167.559 291.758C167.391 291.805 167.209 291.869 167.014 291.951C166.912 291.998 166.85 292.021 166.826 292.021C166.756 292.021 166.678 291.969 166.592 291.863C166.51 291.758 166.438 291.637 166.375 291.5C166.312 291.363 166.281 291.26 166.281 291.189C166.281 291.068 166.367 290.953 166.539 290.844C166.715 290.73 166.955 290.641 167.26 290.574C167.564 290.504 167.902 290.469 168.273 290.469C169.055 290.469 169.623 290.625 169.979 290.938C170.334 291.246 170.512 291.67 170.512 292.209V294.16C170.512 294.484 170.52 294.736 170.535 294.916C170.555 295.096 170.58 295.273 170.611 295.449C170.631 295.555 170.641 295.629 170.641 295.672C170.641 295.75 170.566 295.814 170.418 295.865C170.273 295.916 170.107 295.953 169.92 295.977C169.732 296 169.582 296.012 169.469 296.012C169.348 296.012 169.26 295.961 169.205 295.859C169.154 295.754 169.113 295.611 169.082 295.432C169.078 295.408 169.074 295.385 169.07 295.361C169.066 295.338 169.061 295.314 169.053 295.291C169.014 295.365 168.93 295.465 168.801 295.59C168.676 295.715 168.504 295.83 168.285 295.936C168.066 296.037 167.812 296.088 167.523 296.088ZM168.033 294.863C168.229 294.863 168.412 294.803 168.584 294.682C168.756 294.557 168.885 294.398 168.971 294.207V293.633C167.998 293.633 167.512 293.889 167.512 294.4C167.512 294.537 167.557 294.648 167.646 294.734C167.74 294.82 167.869 294.863 168.033 294.863ZM172.498 296.018C172.084 296.018 171.877 295.908 171.877 295.689V292.385C171.877 291.885 171.844 291.469 171.777 291.137C171.758 291.031 171.748 290.957 171.748 290.914C171.748 290.836 171.82 290.773 171.965 290.727C172.113 290.676 172.279 290.639 172.463 290.615C172.65 290.592 172.801 290.58 172.914 290.58C173.035 290.58 173.119 290.625 173.166 290.715C173.217 290.805 173.262 290.936 173.301 291.107L173.336 291.26C173.5 291.041 173.719 290.855 173.992 290.703C174.27 290.547 174.566 290.469 174.883 290.469C175.406 290.469 175.793 290.605 176.043 290.879C176.293 291.152 176.418 291.576 176.418 292.15V295.689C176.418 295.908 176.207 296.018 175.785 296.018H175.498C175.084 296.018 174.877 295.908 174.877 295.689V292.385C174.877 292.174 174.826 292.014 174.725 291.904C174.627 291.795 174.467 291.74 174.244 291.74C174.057 291.74 173.891 291.803 173.746 291.928C173.602 292.053 173.492 292.191 173.418 292.344V295.689C173.418 295.908 173.207 296.018 172.785 296.018H172.498ZM180.086 296.088C179.199 296.088 178.541 295.859 178.111 295.402C177.682 294.941 177.467 294.244 177.467 293.311C177.467 292.369 177.684 291.66 178.117 291.184C178.551 290.707 179.227 290.469 180.145 290.469C180.406 290.469 180.67 290.498 180.936 290.557C181.205 290.611 181.428 290.693 181.604 290.803C181.783 290.908 181.873 291.037 181.873 291.189C181.873 291.252 181.838 291.35 181.768 291.482C181.701 291.615 181.623 291.734 181.533 291.84C181.447 291.941 181.375 291.992 181.316 291.992C181.289 291.992 181.229 291.965 181.135 291.91C180.986 291.84 180.846 291.785 180.713 291.746C180.58 291.703 180.418 291.682 180.227 291.682C179.816 291.682 179.518 291.812 179.33 292.074C179.143 292.332 179.049 292.73 179.049 293.27C179.049 293.812 179.137 294.215 179.312 294.477C179.492 294.734 179.777 294.863 180.168 294.863C180.383 294.863 180.57 294.842 180.73 294.799C180.891 294.752 181.043 294.693 181.188 294.623C181.215 294.611 181.248 294.598 181.287 294.582C181.326 294.566 181.355 294.559 181.375 294.559C181.445 294.559 181.521 294.609 181.604 294.711C181.689 294.809 181.762 294.922 181.82 295.051C181.883 295.18 181.914 295.279 181.914 295.35C181.914 295.529 181.797 295.674 181.562 295.783C181.328 295.893 181.066 295.971 180.777 296.018C180.488 296.064 180.258 296.088 180.086 296.088ZM185.236 296.088C184.322 296.088 183.641 295.844 183.191 295.355C182.742 294.863 182.518 294.182 182.518 293.311C182.518 292.33 182.742 291.611 183.191 291.154C183.641 290.697 184.26 290.469 185.049 290.469C185.572 290.469 186 290.588 186.332 290.826C186.668 291.064 186.912 291.385 187.064 291.787C187.221 292.189 187.299 292.645 187.299 293.152C187.299 293.211 187.264 293.289 187.193 293.387C187.127 293.484 187.051 293.572 186.965 293.65C186.879 293.729 186.812 293.768 186.766 293.768H184.111C184.146 294.166 184.264 294.449 184.463 294.617C184.666 294.781 184.947 294.863 185.307 294.863C185.502 294.863 185.678 294.842 185.834 294.799C185.994 294.752 186.164 294.691 186.344 294.617C186.453 294.566 186.527 294.541 186.566 294.541C186.637 294.541 186.713 294.592 186.795 294.693C186.881 294.791 186.953 294.904 187.012 295.033C187.074 295.162 187.105 295.262 187.105 295.332C187.105 295.492 186.996 295.629 186.777 295.742C186.562 295.855 186.307 295.941 186.01 296C185.717 296.059 185.459 296.088 185.236 296.088ZM185.799 292.742C185.799 292.422 185.736 292.166 185.611 291.975C185.486 291.779 185.299 291.682 185.049 291.682C184.533 291.682 184.221 292.035 184.111 292.742H185.799ZM188.945 289.654C188.727 289.654 188.566 289.627 188.465 289.572C188.367 289.518 188.318 289.434 188.318 289.32V288.482C188.318 288.369 188.369 288.285 188.471 288.23C188.572 288.172 188.73 288.143 188.945 288.143H189.232C189.447 288.143 189.605 288.172 189.707 288.23C189.809 288.285 189.859 288.369 189.859 288.482V289.32C189.859 289.434 189.809 289.518 189.707 289.572C189.609 289.627 189.451 289.654 189.232 289.654H188.945ZM188.945 296.018C188.527 296.018 188.318 295.908 188.318 295.689V290.861C188.318 290.752 188.369 290.67 188.471 290.615C188.572 290.561 188.73 290.533 188.945 290.533H189.232C189.447 290.533 189.605 290.561 189.707 290.615C189.809 290.67 189.859 290.752 189.859 290.861V295.689C189.859 295.908 189.65 296.018 189.232 296.018H188.945ZM191.74 296.018C191.326 296.018 191.119 295.908 191.119 295.689V292.385C191.119 291.885 191.086 291.469 191.02 291.137C191 291.031 190.99 290.957 190.99 290.914C190.99 290.836 191.062 290.773 191.207 290.727C191.355 290.676 191.521 290.639 191.705 290.615C191.893 290.592 192.043 290.58 192.156 290.58C192.277 290.58 192.361 290.625 192.408 290.715C192.459 290.805 192.504 290.936 192.543 291.107L192.578 291.26C192.711 291.018 192.863 290.826 193.035 290.686C193.211 290.541 193.436 290.469 193.709 290.469C193.936 290.469 194.092 290.527 194.178 290.645C194.264 290.758 194.307 290.887 194.307 291.031C194.307 291.109 194.293 291.221 194.266 291.365C194.238 291.506 194.199 291.631 194.148 291.74C194.098 291.85 194.041 291.904 193.979 291.904C193.936 291.904 193.871 291.893 193.785 291.869C193.668 291.838 193.568 291.822 193.486 291.822C193.295 291.822 193.127 291.877 192.982 291.986C192.842 292.092 192.734 292.211 192.66 292.344V295.689C192.66 295.908 192.449 296.018 192.027 296.018H191.74ZM197.248 296.088C196.424 296.088 195.795 295.846 195.361 295.361C194.932 294.877 194.717 294.18 194.717 293.27C194.717 292.363 194.932 291.67 195.361 291.189C195.795 290.709 196.424 290.469 197.248 290.469C198.072 290.469 198.697 290.709 199.123 291.189C199.553 291.666 199.768 292.359 199.768 293.27C199.768 294.18 199.553 294.877 199.123 295.361C198.697 295.846 198.072 296.088 197.248 296.088ZM197.248 294.863C197.576 294.863 197.816 294.73 197.969 294.465C198.125 294.199 198.203 293.801 198.203 293.27C198.203 292.742 198.125 292.346 197.969 292.08C197.816 291.814 197.576 291.682 197.248 291.682C196.6 291.682 196.275 292.211 196.275 293.27C196.275 293.797 196.354 294.195 196.51 294.465C196.67 294.73 196.916 294.863 197.248 294.863Z" fill="white"/>
<path d="M115.543 229V112.594H117.105L123.355 122.75V229H115.543ZM115.543 96.9688V92.2812H123.16L202.457 218.648V229H198.355L115.543 96.9688ZM194.645 192.086V92.2812H202.457V202.438H200.895L194.645 192.086Z" fill="white"/>
<path d="M106 229V72" stroke="white" stroke-width="6" stroke-linecap="round"/>
<path d="M107 68.5C105.067 68.5 103.5 70.067 103.5 72C103.5 73.933 105.067 75.5 107 75.5V68.5ZM177 75.5H180.5V68.5H177V75.5ZM107 75.5H177V68.5H107V75.5Z" fill="white"/>
<path d="M107 158.5C105.067 158.5 103.5 160.067 103.5 162C103.5 163.933 105.067 165.5 107 165.5V158.5ZM157 165.5H160.5V158.5H157V165.5ZM107 165.5H157V158.5H107V165.5Z" fill="white"/>
<circle cx="197" cy="72" r="6" fill="white"/>
</svg>
